<svg width="332" height="385" viewBox="0 0 332 385" fill="none" xmlns="http://www.w3.org/2000/svg">
<path d="M168.076 303.944C140.094 290.326 126.136 256.407 136.903 228.186C140.893 217.73 147.939 209.145 157.004 203.493C161.724 201.009 166.086 198.755 170.31 196.18C185.327 187.142 201.155 178.885 209.191 158.222C216.792 138.677 213.359 122.519 209.3 106.568C207.555 100.163 204.705 93.1721 203.144 87.4989C199.727 75.3335 200.122 62.5447 204.445 51.1542C215.21 22.9304 246.625 11.0942 274.608 24.7194C302.589 38.3412 316.542 72.2614 305.772 100.48C301.483 111.693 293.68 120.738 283.656 126.325C279.639 128.196 275.995 130.017 272.46 132.108C257.794 140.68 242.704 148.404 234.432 170.51C226.322 192.183 232.724 211.55 237.294 230.868C238.526 236.698 239.85 242.132 240.965 247.544C242.704 257.789 241.781 268.156 238.23 277.512C227.464 305.73 196.055 317.563 168.076 303.944V303.944Z" fill="url(#paint0_linear_501_11)"/>
<path d="M171.393 294.383C149.032 283.573 138.142 256.623 146.912 233.787C150.143 225.383 155.797 218.465 163.034 213.873C167.491 211.487 171.841 209.199 176.24 206.476L176.274 206.461C190.929 197.505 209.774 187.443 219.258 163.207C228.057 140.719 224.112 120.706 220.093 104.442L220.075 104.346L220.045 104.245C218.058 96.7485 215.226 89.6257 214.031 85.1639L214.017 85.1281L214.003 85.0921C211.341 75.3586 211.716 65.0984 215.215 55.9305L215.219 55.9183L215.221 55.9119C223.996 33.0865 248.925 23.4608 271.28 34.2742C293.638 45.0872 304.527 72.0437 295.759 94.8773C292.29 103.879 286.048 111.163 278.059 115.711C274.13 117.591 270.374 119.494 266.653 121.728C252.312 130.247 233.888 140.219 224.307 165.647C214.718 191.094 222.112 214.17 226.376 232.771C227.568 238.58 228.785 243.815 229.774 248.752C231.093 256.937 230.314 265.234 227.446 272.742C218.671 295.567 193.741 305.19 171.387 294.38L171.393 294.383Z" fill="url(#paint1_linear_501_11)" stroke="white" stroke-width="0.870069"/>
<path d="M163.925 78.4767C135.823 65.155 104.532 77.3367 94.0366 105.684C90.1487 116.189 89.5743 127.881 92.2696 139.181C93.9651 144.747 95.5592 149.861 96.8519 155.086C101.524 173.58 107.256 192.192 99.6783 213.072C92.5098 232.824 79.8366 241.245 66.8605 249.011C61.5704 252.037 55.1395 254.569 50.4427 257.236C40.3227 262.898 32.4533 272.095 28.2017 283.519C17.7034 311.868 31.98 345.649 60.087 358.967C88.1908 372.285 119.48 360.099 129.972 331.75C134.134 320.477 134.476 307.849 131.072 295.813C129.475 291.246 128.104 287.016 126.982 282.688C122.256 264.803 116.697 247.161 125.03 225.087C133.2 203.446 149.978 195.214 165.454 185.526C170.021 182.482 174.402 179.789 178.622 176.94C186.354 171.245 192.315 163.299 195.807 153.915C206.3 125.569 192.026 91.7949 163.925 78.4767V78.4767Z" fill="url(#paint2_linear_501_11)"/>
<path d="M160.624 88.0811C138.188 77.4995 113.376 87.3935 104.836 110.332C101.693 118.777 101.188 128.15 103.268 137.19C104.832 142.449 106.384 147.556 107.693 153.002L107.707 153.039C112.139 171.106 118.769 193.328 109.828 217.817C101.533 240.538 85.9785 251.234 72.7747 259.27L72.6972 259.32L72.6132 259.367C66.4342 262.962 59.9081 265.614 56.2219 267.744L56.1936 267.759L56.1653 267.775C48.0851 272.376 41.7744 279.799 38.3306 288.99L38.3257 289.002L38.3232 289.009C29.794 311.944 40.9241 338.784 63.3575 349.359C85.7923 359.937 110.609 350.038 119.148 327.102C122.509 318.052 122.84 307.948 120.211 298.33C118.688 293.849 117.302 289.491 116.151 284.931C111.658 267.422 105.262 245.603 114.899 220.209C124.543 194.796 144.449 184.763 159.319 175.303C163.866 172.236 168.062 169.588 171.911 166.962C178.067 162.349 182.84 155.961 185.658 148.432C194.188 125.497 183.054 98.6579 160.624 88.081L160.624 88.0811Z" fill="url(#paint3_linear_501_11)" stroke="white" stroke-width="0.870069"/>
<defs>
<linearGradient id="paint0_linear_501_11" x1="259.863" y1="69.3394" x2="160.817" y2="272.804" gradientUnits="userSpaceOnUse">
<stop stop-color="#003380"/>
<stop offset="1" stop-color="#00BED9"/>
</linearGradient>
<linearGradient id="paint1_linear_501_11" x1="260.26" y1="68.8853" x2="161.163" y2="273.803" gradientUnits="userSpaceOnUse">
<stop stop-color="#003380"/>
<stop offset="1" stop-color="#00BED9"/>
</linearGradient>
<linearGradient id="paint2_linear_501_11" x1="78.2631" y1="315.999" x2="175.256" y2="111.338" gradientUnits="userSpaceOnUse">
<stop stop-color="#003380"/>
<stop offset="1" stop-color="#00BED9"/>
</linearGradient>
<linearGradient id="paint3_linear_501_11" x1="77.8701" y1="316.428" x2="175.002" y2="110.429" gradientUnits="userSpaceOnUse">
<stop stop-color="#003380"/>
<stop offset="1" stop-color="#00BED9"/>
</linearGradient>
</defs>
</svg>
